<?xml version="1.0" encoding="UTF-8" standalone="no"?>

<svg
   width="201.88712mm"
   height="201.88712mm"
   viewBox="0 0 201.88712 201.88712"
   version="1.1"
   id="svg1"
   xmlns:xlink="http://www.w3.org/1999/xlink"
   xmlns="http://www.w3.org/2000/svg"
   xmlns:svg="http://www.w3.org/2000/svg">
  <defs
     id="defs1">
    <linearGradient
       id="linearGradient3">
      <stop
         style="stop-color:#13337d;stop-opacity:1;"
         offset="0"
         id="stop3" />
      <stop
         style="stop-color:#300644;stop-opacity:1;"
         offset="1"
         id="stop4" />
    </linearGradient>
    <radialGradient
       xlink:href="#linearGradient3"
       id="radialGradient4"
       cx="106.40981"
       cy="103.85888"
       fx="106.40981"
       fy="103.85888"
       r="100.94356"
       gradientUnits="userSpaceOnUse"
       gradientTransform="translate(-5.4662533,-2.9153205)" />
  </defs>
  <g
     id="layer1">
    <circle
       style="fill:url(#radialGradient4);stroke-width:0.264583"
       id="path2"
       cx="100.94356"
       cy="100.94356"
       r="100.94356" />
    <path
       d="m 41.793446,135.1224 v -12.87132 c 3.37109,2.36415 6.80778,4.29046 10.31019,5.77898 3.5462,1.44472 6.52324,2.16712 8.93113,2.16712 2.49545,0 4.64065,-0.61295 6.43565,-1.83878 1.79499,-1.22584 2.69249,-2.69249 2.69249,-4.3999 0,-1.7512 -0.59103,-3.19594 -1.77313,-4.3342 -1.13825,-1.18204 -3.63372,-2.86759 -7.48633,-5.05659 -7.70529,-4.29044 -12.76187,-7.94609 -15.16981,-10.96686 -2.36409,-3.06463 -3.54614,-6.39188 -3.54614,-9.98187 0,-4.640677 1.79499,-8.427623 5.38492,-11.360933 3.63372,-2.93326 8.29631,-4.39985 13.98771,-4.39985 5.91029,0 11.97381,1.66363 18.19059,4.99092 V 94.66971 c -7.09235,-4.290467 -12.89319,-6.435667 -17.40254,-6.435667 -2.32036,0 -4.20288,0.50355 -5.6476,1.51039 -1.40101,0.96315 -2.10147,2.254707 -2.10147,3.874547 0,1.40094 0.6348,2.73623 1.90443,4.00586 1.31342,1.26961 3.58994,2.80194 6.82966,4.59694 l 4.26859,2.42974 c 10.06938,5.69139 15.104041,11.99575 15.104041,18.91298 0,4.94714 -1.94817,9.01865 -5.844581,12.21458 -3.85267,3.15219 -8.82168,4.72825 -14.90712,4.72825 -3.58994,0 -6.78588,-0.37224 -9.58781,-1.1164 -2.80193,-0.788 -6.32621,-2.21086 -10.57287,-4.26853 z M 82.646047,76.568237 c 8.47413,0.25151 23.517023,-19.12414 27.838203,-32.51818 v 23.17156 h 78.20328 c -7.16482,2.98858 -35.74783,6.26299 -34.61179,10.52866 h -43.59149 v 41.677003 c 0,6.91723 2.8676,10.37584 8.60279,10.37584 4.29046,0 8.82167,-1.44472 13.5937,-4.33418 v 11.1639 c -4.59693,2.58299 -9.60972,3.87449 -15.03843,3.87449 -5.4725,0 -10.02561,-1.59797 -13.65938,-4.79391 -1.13827,-0.96316 -2.07956,-2.03575 -2.82382,-3.21781 -0.74427,-1.22582 -1.379071,-2.80193 -1.904431,-4.72824 -0.48186,-1.97009 -0.72234,-5.69139 -0.72234,-11.1639 V 77.750277 l -6.355451,3.85913 z"
       style="font-size:25.4px;font-family:'Gill Sans MT';-inkscape-font-specification:'Gill Sans MT';white-space:pre;inline-size:55.4821;fill:#d9d9d9;fill-opacity:1;stroke-width:1.40096"
       id="path1" />
  </g>
</svg>
